<?xml version="1.0" encoding="utf-8"?>

<!-- Uploaded to: SVG Repo, www.svgrepo.com, Generator: SVG Repo Mixer Tools -->
<svg width="30px" height="80px" viewBox="0 0 64 64" fill="none" xmlns="http://www.w3.org/2000/svg">
<g clip-path="url(#clip0_14_1926)">
<path d="M39.26 24.683L19.892 44.051" stroke="#1e57eb" stroke-width="4" stroke-linecap="round" stroke-linejoin="round"/>
<path d="M27.13 22.288L39.538 9.881C40.1341 9.28492 40.8417 8.81208 41.6205 8.48948C42.3993 8.16688 43.234 8.00084 44.077 8.00084C44.92 8.00084 45.7547 8.16688 46.5335 8.48948C47.3123 8.81208 48.0199 9.28492 48.616 9.881L54.063 15.328C54.6591 15.9241 55.1319 16.6317 55.4545 17.4105C55.7771 18.1893 55.9432 19.024 55.9432 19.867C55.9432 20.71 55.7771 21.5447 55.4545 22.3235C55.1319 23.1023 54.6591 23.8099 54.063 24.406L41.656 36.814" stroke="#000000" stroke-width="4" stroke-linecap="round" stroke-linejoin="round"/>
<path d="M31.972 46.498L24.406 54.063C23.8099 54.6591 23.1023 55.1319 22.3235 55.4545C21.5447 55.7771 20.71 55.9432 19.867 55.9432C19.024 55.9432 18.1893 55.7771 17.4105 55.4545C16.6317 55.1319 15.9241 54.6591 15.328 54.063L9.881 48.616C9.28492 48.0199 8.81208 47.3123 8.48948 46.5335C8.16688 45.7547 8.00084 44.92 8.00084 44.077C8.00084 43.234 8.16688 42.3993 8.48948 41.6205C8.81208 40.8417 9.28492 40.1341 9.881 39.538L17.446 31.972" stroke="#000000" stroke-width="4" stroke-linecap="round" stroke-linejoin="round"/>
</g>
<defs>
<clipPath id="clip0_14_1926">
<rect width="51.943" height="51.943" fill="white" transform="translate(6 6)"/>
</clipPath>
</defs>
</svg>